#!OML:ASF I:\Actors\actors\Patient Classification 2\Patient 1\Session 1\actor1.ASF
:FULLY-SPECIFIED
:DEGREES
520
root -0.7154 18.71 5.69489 3.12132 -3.29682 -1.68674
lowerback 2.97602 1.29905 -0.366439
upperback -1.70389 1.72864 0.337202
thorax -3.4416 0.873518 0.449651
lowerneck -8.99253 -2.62076 -0.505283
upperneck 20.8026 -4.34519 3.69888
head 8.00028 -1.75669 0.893296
rclavicle 2.87927e-015 -1.39149e-015
rhumerus -28.5631 40.3301 -79.0374
rradius 117.769
rwrist -28.8624
rhand -6.56102 -37.1788
rfingers 7.12502
rthumb 19.293 -66.2418
lclavicle 2.87927e-015 -1.39149e-015
lhumerus -28.053 -42.7109 86.8564
lradius 117.56
lwrist 49.1767
lhand -21.8541 -24.0548
lfingers 7.12502
lthumb 4.54966 5.87631
rfemur 0 0 0
rtibia 0
rfoot 0 0
rtoes 0
lfemur -4.8592 -7.67357 -12.8296
ltibia 21.0549
lfoot -25.3964 17.6613
ltoes -53.618
521
root -0.714454 18.71 5.69486 3.16866 -3.31022 -1.69395
lowerback 2.9175 1.30721 -0.363805
upperback -1.73192 1.73987 0.338196
thorax -3.4376 0.879154 0.449565
lowerneck -9.02 -2.633 -0.518298
upperneck 20.8798 -4.36868 3.72168
head 8.03249 -1.76499 0.900273
rclavicle 3.22249e-014 5.96354e-015
rhumerus -28.81 40.3234 -79.1735
rradius 117.761
rwrist -28.8435
rhand -6.54566 -37.1799
rfingers 7.12502
rthumb 19.3077 -66.2414
lclavicle 3.22249e-014 5.96354e-015
lhumerus -28.251 -42.7247 87.0832
lradius 117.552
lwrist 49.0478
lhand -21.8269 -24.0854
lfingers 7.12502
lthumb 4.57594 5.84519
rfemur 0 0 0
rtibia 0
rfoot 0 0
rtoes 0
lfemur -4.90087 -7.65855 -12.8168
ltibia 21.0408
lfoot -25.4565 17.6368
ltoes -53.5733
522
root -0.713333 18.7108 5.69482 3.19236 -3.32473 -1.66317
lowerback 2.86076 1.31099 -0.420248
upperback -1.73855 1.74284 0.34543
thorax -3.41439 0.882051 0.489717
lowerneck -9.04629 -2.6378 -0.528072
upperneck 20.9465 -4.37273 3.70208
head 8.05935 -1.76803 0.894601
rclavicle -1.18587e-014 6.75868e-015
rhumerus -28.9794 40.3571 -79.238
rradius 117.739
rwrist -28.7753
rhand -6.60488 -37.3974
rfingers 7.12502
rthumb 19.2508 -66.4646
lclavicle -1.18587e-014 6.75868e-015
lhumerus -28.4269 -42.6916 87.3103
lradius 117.506
lwrist 48.9189
lhand -21.7492 -24.0339
lfingers 7.12502
lthumb 4.65091 5.895
rfemur 0 0 0
rtibia 0
rfoot 0 0
rtoes 0
lfemur -4.92305 -7.60737 -12.851
ltibia 21.0315
lfoot -25.4337 17.6372
ltoes -53.6782
523
root -0.712803 18.7113 5.69502 3.18038 -3.31937 -1.64668
lowerback 2.85539 1.30647 -0.45305
upperback -1.74963 1.73558 0.350221
thorax -3.42386 0.879303 0.513391
lowerneck -9.06467 -2.63001 -0.555322
upperneck 21.0214 -4.363 3.71239
head 8.08832 -1.76303 0.903203
rclavicle 3.6508e-014 -1.45113e-014
rhumerus -29.1861 40.3969 -79.3712
rradius 117.725
rwrist -28.7238
rhand -6.62514 -37.4686
rfingers 7.12502
rthumb 19.2313 -66.5377
lclavicle 3.6508e-014 -1.45113e-014
lhumerus -28.6365 -42.6726 87.5155
lradius 117.479
lwrist 48.8371
lhand -21.6995 -23.9113
lfingers 7.12502
lthumb 4.69892 6.01659
rfemur 0 0 0
rtibia 0
rfoot 0 0
rtoes 0
lfemur -4.90115 -7.63668 -12.8742
ltibia 21.0195
lfoot -25.4522 17.635
ltoes -53.6553
524
root -0.711773 18.7111 5.69517 3.15142 -3.30254 -1.64146
lowerback 2.88888 1.29321 -0.453685
upperback -1.7766 1.71787 0.352331
thorax -3.47049 0.870643 0.515745
lowerneck -9.05012 -2.61559 -0.63654
upperneck 21.0926 -4.35191 3.80413
head 8.11313 -1.75436 0.948429
rclavicle -1.72073e-015 1.19271e-015
rhumerus -29.4554 40.4649 -79.5672
rradius 117.742
rwrist -28.7308
rhand -6.66305 -37.4627
rfingers 7.12502
rthumb 19.1949 -66.5355
lclavicle -1.72073e-015 1.19271e-015
lhumerus -28.8972 -42.6577 87.7094
lradius 117.479
lwrist 48.7998
lhand -21.8556 -23.9255
lfingers 7.12502
lthumb 4.54823 6.00563
rfemur 0 0 0
rtibia 0
rfoot 0 0
rtoes 0
lfemur -4.86116 -7.75356 -12.8945
ltibia 21.0086
lfoot -25.5206 17.6621
ltoes -53.4659
525
root -0.710439 18.7106 5.69509 3.13829 -3.28702 -1.6461
lowerback 2.91064 1.27579 -0.442151
upperback -1.80875 1.69527 0.356719
thorax -3.51549 0.859307 0.514162
lowerneck -8.96116 -2.59758 -0.664512
upperneck 21.0934 -4.33197 3.85213
head 8.09831 -1.7438 0.972174
rclavicle -2.76668e-014 2.5842e-015
rhumerus -29.7239 40.5583 -79.7635
rradius 117.764
rwrist -28.721
rhand -6.75196 -37.3467
rfingers 7.12502
rthumb 19.1094 -66.4279
lclavicle -2.76668e-014 2.5842e-015
lhumerus -29.1581 -42.6117 87.8727
lradius 117.479
lwrist 48.7656
lhand -22.1741 -23.9631
lfingers 7.12502
lthumb 4.24062 5.97444
rfemur 0 0 0
rtibia 0
rfoot 0 0
rtoes 0
lfemur -4.85291 -7.74189 -12.8934
ltibia 21.0066
lfoot -25.4565 17.6797
ltoes -53.4642
526
root -0.709742 18.71 5.69538 3.14433 -3.28369 -1.64164
lowerback 2.91316 1.25935 -0.453203
upperback -1.84583 1.67295 0.357891
thorax -3.5553 0.848626 0.522311
lowerneck -8.85785 -2.57197 -0.609927
upperneck 21.0778 -4.29627 3.81388
head 8.07126 -1.72804 0.955224
rclavicle 1.06194e-014 5.1684e-015
rhumerus -29.9399 40.6227 -79.9401
rradius 117.767
rwrist -28.6593
rhand -6.70388 -37.1939
rfingers 7.12502
rthumb 19.1556 -66.2705
lclavicle 1.06194e-014 5.1684e-015
lhumerus -29.3803 -42.5614 88.0105
lradius 117.46
lwrist 48.6905
lhand -22.3605 -23.9593
lfingers 7.12502
lthumb 4.06064 5.98174
rfemur 0 0 0
rtibia 0
rfoot 0 0
rtoes 0
lfemur -4.86728 -7.6899 -12.8939
ltibia 21.0108
lfoot -25.3948 17.6789
ltoes -53.5678
527
root -0.709965 18.71 5.69561 3.14761 -3.28473 -1.63832
lowerback 2.92043 1.24833 -0.474305
upperback -1.88095 1.65768 0.368145
thorax -3.59644 0.841831 0.544929
lowerneck -8.78161 -2.55071 -0.605822
upperneck 21.08 -4.26165 3.78889
head 8.05646 -1.71475 0.950632
rclavicle -5.05658e-015 -1.27222e-014
rhumerus -30.0707 40.6549 -80.0347
rradius 117.759
rwrist -28.6338
rhand -6.58596 -37.2403
rfingers 7.12502
rthumb 19.269 -66.3056
lclavicle -5.05658e-015 -1.27222e-014
lhumerus -29.5783 -42.5205 88.1611
lradius 117.441
lwrist 48.675
lhand -22.3165 -23.919
lfingers 7.12502
lthumb 4.10318 6.02124
rfemur 0 0 0
rtibia 0
rfoot 0 0
rtoes 0
lfemur -4.87026 -7.67696 -12.894
ltibia 21.0157
lfoot -25.416 17.6653
ltoes -53.5976
